<svg xmlns="http://www.w3.org/2000/svg" xmlns:xlink="http://www.w3.org/1999/xlink" width="500" zoomAndPan="magnify" viewBox="0 0 375 374.999991" height="500" preserveAspectRatio="xMidYMid meet" version="1.0"><defs><clipPath id="1816ea4349"><path d="M 0.445312 0.445312 L 360.003906 0.445312 L 360.003906 360.003906 L 0.445312 360.003906 Z M 0.445312 0.445312 " clip-rule="nonzero"/></clipPath><clipPath id="b9e4af34f1"><path d="M 180.222656 0.445312 C 80.933594 0.445312 0.445312 80.933594 0.445312 180.222656 C 0.445312 279.515625 80.933594 360.003906 180.222656 360.003906 C 279.515625 360.003906 360.003906 279.515625 360.003906 180.222656 C 360.003906 80.933594 279.515625 0.445312 180.222656 0.445312 Z M 180.222656 0.445312 " clip-rule="nonzero"/></clipPath><clipPath id="3c94f62135"><path d="M 0.445312 0.445312 L 360.003906 0.445312 L 360.003906 360.003906 L 0.445312 360.003906 Z M 0.445312 0.445312 " clip-rule="nonzero"/></clipPath><clipPath id="5b0d3f23ae"><path d="M 180.222656 0.445312 C 80.933594 0.445312 0.445312 80.933594 0.445312 180.222656 C 0.445312 279.515625 80.933594 360.003906 180.222656 360.003906 C 279.515625 360.003906 360.003906 279.515625 360.003906 180.222656 C 360.003906 80.933594 279.515625 0.445312 180.222656 0.445312 Z M 180.222656 0.445312 " clip-rule="nonzero"/></clipPath><clipPath id="b30163e41c"><rect x="0" width="361" y="0" height="361"/></clipPath><clipPath id="3038bf80f8"><path d="M 29.832031 29.832031 L 329.175781 29.832031 L 329.175781 329.175781 L 29.832031 329.175781 Z M 29.832031 29.832031 " clip-rule="nonzero"/></clipPath><clipPath id="70bd1cd412"><rect x="0" width="361" y="0" height="361"/></clipPath></defs><rect x="-37.5" width="450" fill="#ffffff" y="-37.499999" height="449.999989" fill-opacity="1"/><rect x="-37.5" width="450" fill="#ffffff" y="-37.499999" height="449.999989" fill-opacity="1"/><g transform="matrix(1, 0, 0, 1, 7, 7)"><g clip-path="url(#70bd1cd412)"><g clip-path="url(#1816ea4349)"><g clip-path="url(#b9e4af34f1)"><g transform="matrix(1, 0, 0, 1, 0.000000000000000888, 0)"><g clip-path="url(#b30163e41c)"><g clip-path="url(#3c94f62135)"><g clip-path="url(#5b0d3f23ae)"><path fill="#ff6347" d="M 0.445312 0.445312 L 360.003906 0.445312 L 360.003906 360.003906 L 0.445312 360.003906 Z M 0.445312 0.445312 " fill-opacity="1" fill-rule="nonzero"/></g></g></g></g></g></g><g clip-path="url(#3038bf80f8)"><path fill="#ffffff" d="M 180.214844 330.597656 C 182.675781 330.597656 185.136719 330.539062 187.59375 330.417969 C 190.050781 330.296875 192.503906 330.117188 194.953125 329.875 C 197.402344 329.632812 199.847656 329.332031 202.28125 328.96875 C 204.714844 328.609375 207.140625 328.1875 209.554688 327.707031 C 211.96875 327.226562 214.367188 326.6875 216.753906 326.089844 C 219.140625 325.492188 221.511719 324.835938 223.867188 324.121094 C 226.222656 323.410156 228.558594 322.636719 230.878906 321.808594 C 233.195312 320.976562 235.488281 320.09375 237.765625 319.152344 C 240.039062 318.210938 242.289062 317.210938 244.511719 316.160156 C 246.738281 315.109375 248.933594 314 251.105469 312.839844 C 253.277344 311.679688 255.417969 310.46875 257.527344 309.203125 C 259.636719 307.9375 261.71875 306.621094 263.761719 305.253906 C 265.808594 303.886719 267.820312 302.46875 269.796875 301.003906 C 271.773438 299.539062 273.714844 298.023438 275.617188 296.460938 C 277.519531 294.902344 279.382812 293.292969 281.207031 291.640625 C 283.03125 289.988281 284.8125 288.292969 286.550781 286.550781 C 288.292969 284.8125 289.988281 283.03125 291.640625 281.207031 C 293.292969 279.382812 294.902344 277.519531 296.460938 275.617188 C 298.023438 273.714844 299.539062 271.773438 301.003906 269.796875 C 302.46875 267.820312 303.886719 265.808594 305.253906 263.761719 C 306.621094 261.71875 307.9375 259.636719 309.203125 257.527344 C 310.46875 255.417969 311.679688 253.277344 312.839844 251.105469 C 314 248.933594 315.109375 246.738281 316.160156 244.511719 C 317.210938 242.285156 318.210938 240.039062 319.152344 237.765625 C 320.09375 235.488281 320.976562 233.195312 321.808594 230.878906 C 322.636719 228.558594 323.410156 226.222656 324.121094 223.867188 C 324.835938 221.511719 325.492188 219.140625 326.089844 216.753906 C 326.6875 214.367188 327.226562 211.96875 327.707031 209.554688 C 328.1875 207.140625 328.609375 204.714844 328.96875 202.28125 C 329.332031 199.847656 329.632812 197.402344 329.875 194.953125 C 330.117188 192.503906 330.296875 190.050781 330.417969 187.59375 C 330.539062 185.136719 330.597656 182.675781 330.597656 180.214844 C 330.597656 177.753906 330.539062 175.292969 330.417969 172.835938 C 330.296875 170.378906 330.117188 167.925781 329.875 165.476562 C 329.632812 163.023438 329.332031 160.582031 328.96875 158.148438 C 328.609375 155.714844 328.1875 153.289062 327.707031 150.875 C 327.226562 148.460938 326.6875 146.0625 326.089844 143.675781 C 325.492188 141.289062 324.835938 138.914062 324.121094 136.5625 C 323.410156 134.207031 322.636719 131.871094 321.808594 129.550781 C 320.976562 127.234375 320.09375 124.9375 319.152344 122.664062 C 318.210938 120.390625 317.210938 118.140625 316.160156 115.917969 C 315.109375 113.691406 314 111.496094 312.839844 109.324219 C 311.679688 107.152344 310.46875 105.011719 309.203125 102.902344 C 307.9375 100.792969 306.621094 98.710938 305.253906 96.667969 C 303.886719 94.621094 302.46875 92.609375 301.003906 90.632812 C 299.539062 88.65625 298.023438 86.714844 296.460938 84.8125 C 294.902344 82.910156 293.292969 81.046875 291.640625 79.222656 C 289.988281 77.398438 288.292969 75.617188 286.550781 73.878906 C 284.8125 72.136719 283.03125 70.441406 281.207031 68.789062 C 279.382812 67.136719 277.519531 65.527344 275.617188 63.96875 C 273.714844 62.40625 271.773438 60.890625 269.796875 59.425781 C 267.820312 57.960938 265.808594 56.542969 263.761719 55.175781 C 261.71875 53.808594 259.636719 52.492188 257.527344 51.226562 C 255.417969 49.960938 253.277344 48.75 251.105469 47.589844 C 248.933594 46.429688 246.738281 45.320312 244.511719 44.269531 C 242.289062 43.21875 240.039062 42.21875 237.765625 41.277344 C 235.488281 40.335938 233.195312 39.453125 230.878906 38.621094 C 228.558594 37.792969 226.222656 37.019531 223.867188 36.308594 C 221.511719 35.59375 219.140625 34.9375 216.753906 34.339844 C 214.367188 33.738281 211.96875 33.199219 209.554688 32.722656 C 207.140625 32.242188 204.714844 31.820312 202.28125 31.460938 C 199.847656 31.097656 197.402344 30.796875 194.953125 30.554688 C 192.503906 30.3125 190.050781 30.132812 187.59375 30.011719 C 185.136719 29.890625 182.675781 29.832031 180.214844 29.832031 C 177.753906 29.832031 175.292969 29.890625 172.835938 30.011719 C 170.378906 30.132812 167.925781 30.3125 165.476562 30.554688 C 163.023438 30.796875 160.582031 31.097656 158.148438 31.460938 C 155.714844 31.820312 153.289062 32.242188 150.875 32.722656 C 148.460938 33.199219 146.0625 33.738281 143.675781 34.339844 C 141.289062 34.9375 138.914062 35.59375 136.5625 36.308594 C 134.207031 37.019531 131.871094 37.792969 129.550781 38.621094 C 127.234375 39.453125 124.9375 40.335938 122.664062 41.277344 C 120.390625 42.21875 118.140625 43.21875 115.917969 44.269531 C 113.691406 45.320312 111.496094 46.429688 109.324219 47.589844 C 107.152344 48.75 105.011719 49.960938 102.902344 51.226562 C 100.792969 52.492188 98.710938 53.808594 96.667969 55.175781 C 94.621094 56.542969 92.609375 57.960938 90.632812 59.425781 C 88.65625 60.890625 86.714844 62.40625 84.8125 63.96875 C 82.910156 65.527344 81.046875 67.136719 79.222656 68.789062 C 77.398438 70.441406 75.617188 72.136719 73.878906 73.878906 C 72.136719 75.617188 70.441406 77.398438 68.789062 79.222656 C 67.136719 81.046875 65.527344 82.910156 63.96875 84.8125 C 62.40625 86.714844 60.890625 88.65625 59.425781 90.632812 C 57.960938 92.609375 56.542969 94.621094 55.175781 96.667969 C 53.808594 98.710938 52.492188 100.792969 51.226562 102.902344 C 49.960938 105.011719 48.75 107.152344 47.589844 109.324219 C 46.429688 111.496094 45.320312 113.691406 44.269531 115.917969 C 43.21875 118.140625 42.21875 120.390625 41.277344 122.664062 C 40.335938 124.9375 39.453125 127.234375 38.621094 129.550781 C 37.792969 131.871094 37.019531 134.207031 36.308594 136.5625 C 35.59375 138.914062 34.9375 141.289062 34.339844 143.675781 C 33.738281 146.0625 33.199219 148.460938 32.722656 150.875 C 32.242188 153.289062 31.820312 155.714844 31.460938 158.148438 C 31.097656 160.582031 30.796875 163.023438 30.554688 165.476562 C 30.3125 167.925781 30.132812 170.378906 30.011719 172.835938 C 29.890625 175.292969 29.832031 177.753906 29.832031 180.214844 C 29.832031 182.675781 29.890625 185.136719 30.011719 187.59375 C 30.132812 190.050781 30.3125 192.503906 30.554688 194.953125 C 30.796875 197.402344 31.097656 199.847656 31.460938 202.28125 C 31.820312 204.714844 32.242188 207.140625 32.722656 209.554688 C 33.199219 211.96875 33.738281 214.367188 34.339844 216.753906 C 34.9375 219.140625 35.59375 221.511719 36.308594 223.867188 C 37.019531 226.222656 37.792969 228.558594 38.621094 230.878906 C 39.453125 233.195312 40.335938 235.492188 41.277344 237.765625 C 42.21875 240.039062 43.21875 242.289062 44.269531 244.511719 C 45.320312 246.738281 46.429688 248.933594 47.589844 251.105469 C 48.75 253.277344 49.960938 255.417969 51.226562 257.527344 C 52.492188 259.636719 53.808594 261.71875 55.175781 263.761719 C 56.542969 265.808594 57.960938 267.820312 59.425781 269.796875 C 60.890625 271.773438 62.40625 273.714844 63.96875 275.617188 C 65.527344 277.519531 67.136719 279.382812 68.789062 281.207031 C 70.441406 283.03125 72.136719 284.8125 73.878906 286.550781 C 75.617188 288.292969 77.398438 289.988281 79.222656 291.640625 C 81.046875 293.292969 82.910156 294.902344 84.8125 296.460938 C 86.714844 298.023438 88.65625 299.539062 90.632812 301.003906 C 92.609375 302.46875 94.621094 303.886719 96.667969 305.253906 C 98.710938 306.621094 100.792969 307.9375 102.902344 309.203125 C 105.011719 310.46875 107.152344 311.679688 109.324219 312.839844 C 111.496094 314 113.691406 315.109375 115.917969 316.160156 C 118.140625 317.210938 120.390625 318.210938 122.664062 319.152344 C 124.9375 320.09375 127.234375 320.976562 129.550781 321.808594 C 131.871094 322.636719 134.207031 323.410156 136.5625 324.121094 C 138.914062 324.835938 141.289062 325.492188 143.675781 326.089844 C 146.0625 326.6875 148.460938 327.226562 150.875 327.707031 C 153.289062 328.1875 155.714844 328.609375 158.148438 328.96875 C 160.582031 329.332031 163.023438 329.632812 165.476562 329.875 C 167.925781 330.117188 170.378906 330.296875 172.835938 330.417969 C 175.292969 330.539062 177.753906 330.597656 180.214844 330.597656 Z M 180.214844 39.855469 C 182.511719 39.855469 184.808594 39.914062 187.101562 40.027344 C 189.394531 40.140625 191.6875 40.308594 193.972656 40.53125 C 196.257812 40.757812 198.539062 41.039062 200.808594 41.375 C 203.082031 41.714844 205.34375 42.105469 207.597656 42.554688 C 209.851562 43.003906 212.089844 43.503906 214.320312 44.0625 C 216.546875 44.621094 218.761719 45.234375 220.957031 45.902344 C 223.15625 46.566406 225.335938 47.289062 227.5 48.0625 C 229.664062 48.835938 231.804688 49.660156 233.925781 50.542969 C 236.050781 51.421875 238.148438 52.351562 240.226562 53.332031 C 242.300781 54.316406 244.351562 55.347656 246.378906 56.429688 C 248.40625 57.511719 250.402344 58.644531 252.375 59.824219 C 254.34375 61.007812 256.285156 62.234375 258.195312 63.511719 C 260.101562 64.789062 261.980469 66.109375 263.824219 67.476562 C 265.671875 68.847656 267.480469 70.257812 269.257812 71.714844 C 271.03125 73.175781 272.769531 74.675781 274.472656 76.214844 C 276.175781 77.757812 277.839844 79.34375 279.460938 80.96875 C 281.085938 82.589844 282.671875 84.253906 284.214844 85.957031 C 285.753906 87.660156 287.253906 89.398438 288.710938 91.171875 C 290.171875 92.949219 291.582031 94.757812 292.953125 96.605469 C 294.320312 98.449219 295.640625 100.328125 296.917969 102.234375 C 298.195312 104.144531 299.421875 106.085938 300.605469 108.054688 C 301.785156 110.027344 302.917969 112.023438 304 114.050781 C 305.082031 116.078125 306.113281 118.128906 307.097656 120.203125 C 308.078125 122.28125 309.007812 124.378906 309.886719 126.503906 C 310.765625 128.625 311.59375 130.765625 312.367188 132.929688 C 313.140625 135.09375 313.863281 137.273438 314.527344 139.472656 C 315.195312 141.667969 315.808594 143.882812 316.367188 146.109375 C 316.925781 148.339844 317.425781 150.578125 317.875 152.832031 C 318.324219 155.085938 318.714844 157.347656 319.054688 159.621094 C 319.390625 161.890625 319.671875 164.171875 319.898438 166.457031 C 320.121094 168.742188 320.289062 171.035156 320.402344 173.328125 C 320.515625 175.621094 320.574219 177.917969 320.574219 180.214844 C 320.574219 182.511719 320.515625 184.808594 320.402344 187.101562 C 320.289062 189.394531 320.121094 191.6875 319.898438 193.972656 C 319.671875 196.257812 319.390625 198.539062 319.054688 200.808594 C 318.714844 203.082031 318.324219 205.34375 317.875 207.597656 C 317.425781 209.851562 316.925781 212.089844 316.367188 214.320312 C 315.808594 216.546875 315.195312 218.761719 314.527344 220.957031 C 313.863281 223.15625 313.140625 225.335938 312.367188 227.5 C 311.59375 229.664062 310.765625 231.804688 309.886719 233.925781 C 309.007812 236.050781 308.078125 238.148438 307.097656 240.226562 C 306.113281 242.300781 305.082031 244.351562 304 246.378906 C 302.917969 248.40625 301.785156 250.402344 300.605469 252.375 C 299.421875 254.34375 298.195312 256.285156 296.917969 258.195312 C 295.640625 260.101562 294.320312 261.980469 292.953125 263.824219 C 291.582031 265.671875 290.171875 267.480469 288.710938 269.257812 C 287.253906 271.03125 285.753906 272.769531 284.214844 274.472656 C 282.671875 276.175781 281.085938 277.839844 279.460938 279.460938 C 277.839844 281.085938 276.175781 282.671875 274.472656 284.214844 C 272.769531 285.753906 271.03125 287.253906 269.257812 288.710938 C 267.480469 290.171875 265.671875 291.582031 263.824219 292.953125 C 261.980469 294.320312 260.101562 295.640625 258.195312 296.917969 C 256.285156 298.195312 254.34375 299.421875 252.375 300.605469 C 250.402344 301.785156 248.40625 302.917969 246.378906 304 C 244.351562 305.082031 242.300781 306.113281 240.226562 307.097656 C 238.148438 308.078125 236.050781 309.007812 233.925781 309.886719 C 231.804688 310.765625 229.664062 311.59375 227.5 312.367188 C 225.335938 313.140625 223.15625 313.863281 220.957031 314.527344 C 218.761719 315.195312 216.546875 315.808594 214.320312 316.367188 C 212.089844 316.925781 209.851562 317.425781 207.597656 317.875 C 205.34375 318.324219 203.082031 318.714844 200.808594 319.054688 C 198.539062 319.390625 196.257812 319.671875 193.972656 319.898438 C 191.6875 320.121094 189.394531 320.289062 187.101562 320.402344 C 184.808594 320.515625 182.511719 320.574219 180.214844 320.574219 C 177.917969 320.574219 175.621094 320.515625 173.328125 320.402344 C 171.035156 320.289062 168.742188 320.121094 166.457031 319.898438 C 164.171875 319.671875 161.890625 319.390625 159.621094 319.054688 C 157.347656 318.714844 155.085938 318.324219 152.832031 317.875 C 150.578125 317.425781 148.339844 316.925781 146.109375 316.367188 C 143.882812 315.808594 141.667969 315.195312 139.472656 314.527344 C 137.273438 313.863281 135.09375 313.140625 132.929688 312.367188 C 130.765625 311.59375 128.625 310.765625 126.503906 309.886719 C 124.378906 309.007812 122.28125 308.078125 120.203125 307.097656 C 118.128906 306.113281 116.078125 305.082031 114.050781 304 C 112.023438 302.917969 110.027344 301.785156 108.054688 300.605469 C 106.085938 299.421875 104.144531 298.195312 102.234375 296.917969 C 100.328125 295.640625 98.449219 294.320312 96.605469 292.953125 C 94.757812 291.582031 92.949219 290.171875 91.171875 288.710938 C 89.398438 287.253906 87.660156 285.753906 85.957031 284.214844 C 84.253906 282.671875 82.589844 281.085938 80.96875 279.460938 C 79.34375 277.839844 77.757812 276.175781 76.214844 274.472656 C 74.675781 272.769531 73.175781 271.03125 71.714844 269.257812 C 70.257812 267.480469 68.847656 265.671875 67.476562 263.824219 C 66.109375 261.980469 64.789062 260.101562 63.511719 258.195312 C 62.234375 256.285156 61.007812 254.34375 59.824219 252.375 C 58.644531 250.402344 57.511719 248.40625 56.429688 246.378906 C 55.347656 244.351562 54.316406 242.300781 53.332031 240.226562 C 52.351562 238.148438 51.421875 236.050781 50.542969 233.925781 C 49.660156 231.804688 48.835938 229.664062 48.0625 227.5 C 47.289062 225.335938 46.566406 223.15625 45.902344 220.957031 C 45.234375 218.761719 44.621094 216.546875 44.0625 214.320312 C 43.503906 212.089844 43.003906 209.851562 42.554688 207.597656 C 42.105469 205.34375 41.714844 203.082031 41.375 200.808594 C 41.039062 198.539062 40.757812 196.257812 40.53125 193.972656 C 40.308594 191.6875 40.140625 189.394531 40.027344 187.101562 C 39.914062 184.808594 39.855469 182.511719 39.855469 180.214844 C 39.855469 177.917969 39.914062 175.621094 40.027344 173.328125 C 40.140625 171.035156 40.308594 168.742188 40.53125 166.457031 C 40.757812 164.171875 41.039062 161.890625 41.375 159.621094 C 41.714844 157.347656 42.105469 155.085938 42.554688 152.832031 C 43.003906 150.578125 43.503906 148.339844 44.0625 146.109375 C 44.621094 143.882812 45.234375 141.667969 45.902344 139.472656 C 46.566406 137.273438 47.289062 135.09375 48.0625 132.929688 C 48.835938 130.765625 49.660156 128.625 50.542969 126.503906 C 51.421875 124.378906 52.351562 122.28125 53.332031 120.203125 C 54.316406 118.128906 55.347656 116.078125 56.429688 114.050781 C 57.511719 112.023438 58.644531 110.027344 59.824219 108.054688 C 61.007812 106.085938 62.234375 104.144531 63.511719 102.234375 C 64.789062 100.328125 66.109375 98.449219 67.476562 96.605469 C 68.847656 94.757812 70.257812 92.949219 71.714844 91.171875 C 73.175781 89.398438 74.675781 87.660156 76.214844 85.957031 C 77.757812 84.253906 79.34375 82.589844 80.96875 80.96875 C 82.589844 79.34375 84.253906 77.757812 85.957031 76.214844 C 87.660156 74.675781 89.398438 73.175781 91.171875 71.714844 C 92.949219 70.257812 94.757812 68.847656 96.605469 67.476562 C 98.449219 66.109375 100.328125 64.789062 102.234375 63.511719 C 104.144531 62.234375 106.085938 61.007812 108.054688 59.824219 C 110.027344 58.644531 112.023438 57.511719 114.050781 56.429688 C 116.078125 55.347656 118.128906 54.316406 120.203125 53.332031 C 122.28125 52.351562 124.378906 51.421875 126.503906 50.542969 C 128.625 49.660156 130.765625 48.835938 132.929688 48.0625 C 135.09375 47.289062 137.273438 46.566406 139.472656 45.902344 C 141.667969 45.234375 143.882812 44.621094 146.109375 44.0625 C 148.339844 43.503906 150.578125 43.003906 152.832031 42.554688 C 155.085938 42.105469 157.347656 41.714844 159.621094 41.375 C 161.890625 41.039062 164.171875 40.757812 166.457031 40.53125 C 168.742188 40.308594 171.035156 40.140625 173.328125 40.027344 C 175.621094 39.914062 177.917969 39.855469 180.214844 39.855469 Z M 180.214844 39.855469 " fill-opacity="1" fill-rule="nonzero"/></g><path fill="#ffffff" d="M 112.941406 281.121094 C 113.800781 281.722656 114.753906 282.023438 115.800781 282.023438 C 116.625 282.015625 117.402344 281.820312 118.128906 281.429688 C 118.855469 281.039062 119.449219 280.503906 119.910156 279.820312 C 120.097656 279.546875 120.253906 279.261719 120.382812 278.957031 C 120.511719 278.65625 120.613281 278.34375 120.679688 278.019531 C 120.746094 277.699219 120.785156 277.371094 120.789062 277.042969 C 120.792969 276.714844 120.761719 276.386719 120.703125 276.066406 C 120.640625 275.742188 120.550781 275.425781 120.429688 275.121094 C 120.304688 274.816406 120.15625 274.527344 119.976562 274.25 C 119.796875 273.972656 119.589844 273.71875 119.359375 273.484375 C 119.128906 273.246094 118.878906 273.035156 118.609375 272.851562 C 116.964844 271.726562 115.351562 270.554688 113.773438 269.34375 C 112.191406 268.128906 110.648438 266.875 109.136719 265.578125 C 107.625 264.28125 106.148438 262.945312 104.707031 261.566406 C 103.269531 260.191406 101.867188 258.773438 100.503906 257.320312 C 99.140625 255.871094 97.820312 254.378906 96.539062 252.855469 C 95.253906 251.332031 94.015625 249.773438 92.816406 248.183594 C 91.621094 246.589844 90.464844 244.96875 89.355469 243.3125 C 88.246094 241.660156 87.183594 239.976562 86.164062 238.265625 C 85.144531 236.550781 84.175781 234.8125 83.25 233.050781 C 82.324219 231.285156 81.449219 229.496094 80.621094 227.683594 C 79.792969 225.875 79.015625 224.039062 78.289062 222.1875 C 77.5625 220.332031 76.882812 218.460938 76.257812 216.570312 C 75.628906 214.679688 75.054688 212.773438 74.53125 210.851562 C 74.007812 208.929688 73.539062 206.992188 73.117188 205.046875 C 72.699219 203.097656 72.335938 201.140625 72.023438 199.171875 C 71.710938 197.207031 71.449219 195.230469 71.246094 193.25 C 71.039062 191.269531 70.886719 189.285156 70.789062 187.292969 C 70.691406 185.304688 70.648438 183.3125 70.660156 181.320312 C 70.667969 179.332031 70.730469 177.339844 70.851562 175.351562 C 70.96875 173.363281 71.140625 171.378906 71.363281 169.398438 C 71.589844 167.421875 71.867188 165.449219 72.199219 163.484375 C 72.53125 161.519531 72.917969 159.566406 73.355469 157.625 C 73.792969 155.679688 74.285156 153.75 74.828125 151.835938 C 75.371094 149.917969 75.964844 148.019531 76.609375 146.132812 C 77.253906 144.25 77.949219 142.382812 78.695312 140.535156 C 79.445312 138.691406 80.238281 136.863281 81.085938 135.0625 C 81.929688 133.257812 82.824219 131.476562 83.765625 129.722656 C 84.707031 127.96875 85.699219 126.238281 86.734375 124.539062 C 87.769531 122.835938 88.847656 121.164062 89.976562 119.519531 C 91.101562 117.878906 92.273438 116.265625 93.484375 114.6875 C 94.699219 113.109375 95.953125 111.5625 97.25 110.050781 C 98.550781 108.539062 99.886719 107.0625 101.261719 105.625 C 101.464844 105.382812 101.636719 105.125 101.789062 104.851562 C 101.941406 104.574219 102.066406 104.289062 102.160156 103.992188 C 102.257812 103.691406 102.328125 103.386719 102.367188 103.078125 C 102.410156 102.765625 102.417969 102.453125 102.402344 102.140625 C 102.382812 101.828125 102.335938 101.519531 102.257812 101.214844 C 102.183594 100.910156 102.078125 100.617188 101.949219 100.332031 C 101.816406 100.046875 101.660156 99.777344 101.476562 99.523438 C 101.296875 99.269531 101.09375 99.03125 100.867188 98.816406 C 100.640625 98.597656 100.394531 98.402344 100.132812 98.234375 C 99.867188 98.0625 99.59375 97.917969 99.304688 97.796875 C 99.011719 97.679688 98.714844 97.585938 98.40625 97.523438 C 98.101562 97.460938 97.789062 97.425781 97.476562 97.421875 C 97.164062 97.417969 96.851562 97.441406 96.542969 97.496094 C 96.234375 97.546875 95.933594 97.628906 95.640625 97.738281 C 95.34375 97.851562 95.066406 97.984375 94.796875 98.148438 C 94.527344 98.3125 94.277344 98.496094 94.046875 98.707031 C 92.542969 100.277344 91.085938 101.886719 89.667969 103.535156 C 88.253906 105.183594 86.882812 106.871094 85.5625 108.59375 C 84.238281 110.316406 82.960938 112.074219 81.730469 113.863281 C 80.503906 115.65625 79.324219 117.480469 78.195312 119.335938 C 77.066406 121.191406 75.988281 123.078125 74.960938 124.992188 C 73.929688 126.90625 72.957031 128.847656 72.035156 130.816406 C 71.113281 132.78125 70.242188 134.773438 69.429688 136.789062 C 68.613281 138.800781 67.855469 140.835938 67.152344 142.890625 C 66.445312 144.949219 65.796875 147.019531 65.207031 149.109375 C 64.613281 151.203125 64.078125 153.308594 63.601562 155.425781 C 63.125 157.546875 62.703125 159.675781 62.339844 161.820312 C 61.976562 163.960938 61.675781 166.113281 61.429688 168.269531 C 61.183594 170.429688 60.996094 172.59375 60.867188 174.761719 C 60.738281 176.929688 60.667969 179.101562 60.65625 181.273438 C 60.644531 183.449219 60.691406 185.621094 60.800781 187.789062 C 60.90625 189.960938 61.070312 192.125 61.296875 194.285156 C 61.519531 196.449219 61.800781 198.601562 62.140625 200.746094 C 62.484375 202.894531 62.882812 205.027344 63.335938 207.152344 C 63.792969 209.277344 64.308594 211.386719 64.878906 213.484375 C 65.449219 215.582031 66.074219 217.660156 66.757812 219.722656 C 67.441406 221.785156 68.179688 223.828125 68.972656 225.851562 C 69.769531 227.871094 70.617188 229.871094 71.519531 231.847656 C 72.421875 233.824219 73.375 235.777344 74.382812 237.699219 C 75.390625 239.625 76.453125 241.519531 77.5625 243.390625 C 78.671875 245.257812 79.832031 247.09375 81.042969 248.898438 C 82.253906 250.703125 83.511719 252.472656 84.816406 254.207031 C 86.125 255.945312 87.476562 257.644531 88.875 259.308594 C 90.273438 260.96875 91.714844 262.59375 93.199219 264.179688 C 94.6875 265.765625 96.214844 267.308594 97.785156 268.808594 C 99.355469 270.3125 100.964844 271.769531 102.613281 273.1875 C 104.261719 274.601562 105.949219 275.96875 107.671875 277.292969 C 109.394531 278.617188 111.152344 279.894531 112.941406 281.121094 Z M 112.941406 281.121094 " fill-opacity="1" fill-rule="nonzero"/><path fill="#ffffff" d="M 156.65625 294.707031 C 156.597656 295.03125 156.570312 295.359375 156.578125 295.691406 C 156.585938 296.023438 156.628906 296.351562 156.699219 296.671875 C 156.773438 296.996094 156.875 297.308594 157.011719 297.613281 C 157.144531 297.914062 157.308594 298.199219 157.496094 298.472656 C 157.6875 298.742188 157.90625 298.988281 158.144531 299.21875 C 158.386719 299.445312 158.644531 299.648438 158.925781 299.824219 C 159.207031 300 159.5 300.144531 159.8125 300.261719 C 160.121094 300.382812 160.4375 300.46875 160.765625 300.523438 C 167.402344 301.621094 174.085938 302.171875 180.816406 302.175781 C 188.660156 302.179688 196.429688 301.429688 204.125 299.921875 C 204.453125 299.859375 204.773438 299.761719 205.085938 299.636719 C 205.394531 299.511719 205.691406 299.359375 205.972656 299.175781 C 206.25 298.988281 206.511719 298.78125 206.75 298.546875 C 206.988281 298.3125 207.203125 298.054688 207.390625 297.777344 C 207.578125 297.5 207.738281 297.207031 207.871094 296.898438 C 208 296.589844 208.101562 296.273438 208.167969 295.945312 C 208.238281 295.617188 208.273438 295.285156 208.277344 294.949219 C 208.277344 294.617188 208.25 294.285156 208.1875 293.953125 C 208.125 293.625 208.03125 293.304688 207.902344 292.996094 C 207.777344 292.683594 207.625 292.390625 207.441406 292.109375 C 207.257812 291.828125 207.046875 291.570312 206.8125 291.332031 C 206.578125 291.089844 206.320312 290.878906 206.042969 290.6875 C 205.765625 290.5 205.476562 290.339844 205.167969 290.210938 C 204.859375 290.078125 204.539062 289.980469 204.210938 289.910156 C 203.882812 289.84375 203.550781 289.808594 203.21875 289.804688 C 202.882812 289.800781 202.550781 289.832031 202.222656 289.894531 C 188.882812 292.480469 175.515625 292.648438 162.117188 290.394531 C 161.796875 290.363281 161.480469 290.363281 161.160156 290.390625 C 160.839844 290.421875 160.523438 290.480469 160.214844 290.570312 C 159.90625 290.664062 159.609375 290.78125 159.324219 290.929688 C 159.039062 291.074219 158.769531 291.25 158.515625 291.449219 C 158.265625 291.648438 158.03125 291.867188 157.824219 292.113281 C 157.613281 292.355469 157.429688 292.617188 157.269531 292.898438 C 157.109375 293.175781 156.976562 293.46875 156.875 293.773438 C 156.773438 294.078125 156.699219 294.386719 156.65625 294.707031 Z M 156.65625 294.707031 " fill-opacity="1" fill-rule="nonzero"/><path fill="#ffffff" d="M 245.683594 271.195312 C 245.203125 271.488281 244.789062 271.851562 244.433594 272.285156 C 244.074219 272.71875 243.800781 273.199219 243.605469 273.722656 C 243.410156 274.25 243.304688 274.789062 243.292969 275.351562 C 243.28125 275.910156 243.359375 276.457031 243.527344 276.992188 C 243.699219 277.527344 243.953125 278.015625 244.285156 278.464844 C 244.621094 278.914062 245.019531 279.296875 245.484375 279.613281 C 245.945312 279.929688 246.449219 280.160156 246.988281 280.304688 C 247.53125 280.453125 248.082031 280.507812 248.640625 280.46875 C 249.710938 280.464844 250.679688 280.144531 251.546875 279.519531 C 253.234375 278.296875 254.890625 277.03125 256.515625 275.722656 C 258.136719 274.414062 259.726562 273.066406 261.277344 271.675781 C 262.832031 270.285156 264.347656 268.855469 265.824219 267.386719 C 267.300781 265.917969 268.742188 264.410156 270.140625 262.867188 C 271.542969 261.324219 272.902344 259.742188 274.21875 258.128906 C 275.539062 256.515625 276.8125 254.867188 278.046875 253.1875 C 279.277344 251.503906 280.464844 249.792969 281.609375 248.050781 C 282.753906 246.308594 283.851562 244.535156 284.902344 242.738281 C 285.953125 240.9375 286.957031 239.109375 287.914062 237.257812 C 288.871094 235.40625 289.777344 233.53125 290.636719 231.632812 C 291.496094 229.734375 292.304688 227.8125 293.0625 225.871094 C 293.824219 223.933594 294.53125 221.972656 295.1875 219.996094 C 295.847656 218.015625 296.453125 216.023438 297.003906 214.011719 C 297.558594 212.003906 298.058594 209.980469 298.507812 207.945312 C 298.957031 205.910156 299.351562 203.863281 299.695312 201.808594 C 300.039062 199.753906 300.328125 197.6875 300.5625 195.617188 C 300.796875 193.546875 300.976562 191.472656 301.105469 189.390625 C 301.230469 187.3125 301.304688 185.230469 301.324219 183.144531 C 301.34375 181.058594 301.308594 178.976562 301.21875 176.894531 C 301.128906 174.8125 300.984375 172.734375 300.789062 170.660156 C 300.589844 168.582031 300.339844 166.515625 300.035156 164.453125 C 299.730469 162.390625 299.371094 160.339844 298.960938 158.296875 C 298.550781 156.253906 298.085938 154.222656 297.566406 152.203125 C 297.050781 150.183594 296.480469 148.179688 295.859375 146.1875 C 295.238281 144.199219 294.566406 142.226562 293.84375 140.273438 C 293.117188 138.316406 292.34375 136.382812 291.519531 134.46875 C 290.695312 132.554688 289.824219 130.664062 288.898438 128.792969 C 287.976562 126.925781 287.007812 125.082031 285.988281 123.261719 C 284.96875 121.445312 283.90625 119.652344 282.792969 117.890625 C 281.679688 116.128906 280.523438 114.394531 279.324219 112.691406 C 278.121094 110.988281 276.875 109.316406 275.589844 107.679688 C 274.300781 106.039062 272.96875 104.4375 271.597656 102.867188 C 271.394531 102.585938 271.164062 102.328125 270.90625 102.09375 C 270.644531 101.859375 270.367188 101.652344 270.066406 101.476562 C 269.765625 101.300781 269.449219 101.15625 269.117188 101.046875 C 268.789062 100.9375 268.449219 100.863281 268.101562 100.824219 C 267.757812 100.785156 267.410156 100.78125 267.0625 100.8125 C 266.714844 100.84375 266.375 100.914062 266.042969 101.019531 C 265.710938 101.121094 265.390625 101.257812 265.085938 101.429688 C 264.785156 101.597656 264.5 101.796875 264.238281 102.027344 C 263.976562 102.257812 263.738281 102.511719 263.527344 102.789062 C 263.320312 103.066406 263.140625 103.367188 262.992188 103.679688 C 262.847656 103.996094 262.730469 104.324219 262.652344 104.664062 C 262.574219 105.003906 262.53125 105.347656 262.523438 105.695312 C 262.515625 106.042969 262.542969 106.390625 262.609375 106.734375 C 262.671875 107.074219 262.773438 107.40625 262.90625 107.730469 C 263.039062 108.050781 263.207031 108.355469 263.402344 108.644531 C 263.601562 108.929688 263.824219 109.195312 264.078125 109.433594 C 265.335938 110.871094 266.558594 112.339844 267.738281 113.84375 C 268.921875 115.34375 270.066406 116.875 271.167969 118.4375 C 272.269531 119.996094 273.332031 121.585938 274.351562 123.199219 C 275.371094 124.816406 276.351562 126.457031 277.285156 128.125 C 278.21875 129.792969 279.109375 131.480469 279.957031 133.195312 C 280.804688 134.90625 281.605469 136.640625 282.363281 138.394531 C 283.121094 140.152344 283.832031 141.921875 284.496094 143.714844 C 285.160156 145.507812 285.777344 147.316406 286.347656 149.136719 C 286.921875 150.960938 287.441406 152.800781 287.917969 154.652344 C 288.394531 156.5 288.820312 158.363281 289.199219 160.238281 C 289.578125 162.109375 289.90625 163.992188 290.1875 165.882812 C 290.46875 167.773438 290.699219 169.667969 290.882812 171.570312 C 291.0625 173.472656 291.195312 175.378906 291.277344 177.289062 C 291.363281 179.195312 291.394531 181.105469 291.378906 183.019531 C 291.363281 184.929688 291.296875 186.839844 291.179688 188.746094 C 291.066406 190.652344 290.898438 192.554688 290.6875 194.453125 C 290.472656 196.355469 290.207031 198.246094 289.894531 200.132812 C 289.582031 202.015625 289.21875 203.890625 288.808594 205.757812 C 288.398438 207.625 287.941406 209.480469 287.433594 211.320312 C 286.925781 213.164062 286.371094 214.992188 285.769531 216.804688 C 285.167969 218.621094 284.519531 220.417969 283.824219 222.195312 C 283.128906 223.976562 282.390625 225.738281 281.601562 227.480469 C 280.816406 229.222656 279.984375 230.941406 279.109375 232.640625 C 278.230469 234.335938 277.3125 236.011719 276.347656 237.660156 C 275.386719 239.3125 274.378906 240.9375 273.332031 242.535156 C 272.285156 244.132812 271.195312 245.703125 270.066406 247.246094 C 268.9375 248.785156 267.769531 250.296875 266.5625 251.777344 C 265.355469 253.257812 264.109375 254.707031 262.824219 256.125 C 261.542969 257.539062 260.222656 258.921875 258.867188 260.269531 C 257.511719 261.617188 256.125 262.929688 254.699219 264.203125 C 253.277344 265.480469 251.824219 266.71875 250.335938 267.917969 C 248.847656 269.117188 247.328125 270.277344 245.78125 271.398438 Z M 245.683594 271.195312 " fill-opacity="1" fill-rule="nonzero"/><path fill="#ffffff" d="M 125.074219 150.136719 L 125.074219 290.496094 C 125.074219 291.484375 125.171875 292.460938 125.363281 293.429688 C 125.554688 294.398438 125.839844 295.339844 126.21875 296.25 C 126.597656 297.164062 127.058594 298.03125 127.609375 298.851562 C 128.15625 299.671875 128.78125 300.429688 129.480469 301.128906 C 130.175781 301.828125 130.9375 302.453125 131.757812 303 C 132.578125 303.546875 133.445312 304.011719 134.359375 304.390625 C 135.269531 304.765625 136.210938 305.050781 137.179688 305.246094 C 138.148438 305.4375 139.125 305.535156 140.113281 305.535156 C 141.101562 305.535156 142.078125 305.4375 143.046875 305.246094 C 144.015625 305.050781 144.957031 304.765625 145.867188 304.390625 C 146.78125 304.011719 147.644531 303.546875 148.46875 303 C 149.289062 302.453125 150.046875 301.828125 150.746094 301.128906 C 151.445312 300.429688 152.066406 299.671875 152.617188 298.851562 C 153.164062 298.03125 153.628906 297.164062 154.007812 296.25 C 154.382812 295.339844 154.667969 294.398438 154.863281 293.429688 C 155.054688 292.460938 155.152344 291.484375 155.152344 290.496094 L 155.152344 150.390625 C 156.28125 149.738281 157.363281 149.015625 158.398438 148.21875 C 159.433594 147.425781 160.414062 146.570312 161.339844 145.648438 C 162.261719 144.730469 163.125 143.753906 163.921875 142.71875 C 164.71875 141.6875 165.445312 140.605469 166.101562 139.480469 C 166.757812 138.351562 167.339844 137.1875 167.84375 135.984375 C 168.351562 134.78125 168.773438 133.550781 169.121094 132.292969 C 169.464844 131.035156 169.726562 129.761719 169.90625 128.46875 C 170.085938 127.175781 170.179688 125.878906 170.1875 124.574219 L 170.1875 70.636719 C 170.1875 70.304688 170.15625 69.980469 170.09375 69.65625 C 170.027344 69.335938 169.933594 69.019531 169.808594 68.71875 C 169.683594 68.414062 169.527344 68.125 169.34375 67.851562 C 169.160156 67.578125 168.953125 67.324219 168.722656 67.089844 C 168.488281 66.859375 168.234375 66.648438 167.960938 66.46875 C 167.6875 66.285156 167.398438 66.128906 167.09375 66.003906 C 166.789062 65.878906 166.476562 65.78125 166.15625 65.71875 C 165.832031 65.65625 165.503906 65.621094 165.175781 65.621094 C 164.847656 65.621094 164.519531 65.65625 164.199219 65.71875 C 163.875 65.78125 163.5625 65.878906 163.257812 66.003906 C 162.953125 66.128906 162.664062 66.285156 162.390625 66.46875 C 162.117188 66.648438 161.863281 66.859375 161.632812 67.089844 C 161.398438 67.324219 161.191406 67.578125 161.007812 67.851562 C 160.824219 68.125 160.671875 68.414062 160.546875 68.71875 C 160.417969 69.019531 160.324219 69.335938 160.261719 69.65625 C 160.195312 69.980469 160.164062 70.304688 160.164062 70.636719 L 160.164062 124.574219 C 160.15625 125.535156 160.078125 126.492188 159.929688 127.445312 C 159.785156 128.394531 159.570312 129.332031 159.289062 130.253906 C 159.007812 131.171875 158.660156 132.070312 158.25 132.941406 C 157.839844 133.808594 157.371094 134.648438 156.839844 135.449219 C 156.308594 136.253906 155.722656 137.015625 155.082031 137.734375 C 154.441406 138.453125 153.753906 139.121094 153.015625 139.738281 C 152.277344 140.359375 151.5 140.921875 150.683594 141.429688 C 149.867188 141.9375 149.015625 142.382812 148.132812 142.769531 L 147.683594 143.070312 C 147.285156 143.296875 146.917969 143.566406 146.578125 143.871094 C 146.378906 144.128906 146.195312 144.394531 146.027344 144.675781 C 145.8125 144.910156 145.644531 145.179688 145.527344 145.476562 C 145.355469 145.910156 145.253906 146.363281 145.226562 146.828125 C 145.226562 146.828125 145.226562 147.179688 145.226562 147.382812 L 145.226562 290.496094 C 145.226562 290.824219 145.195312 291.152344 145.128906 291.472656 C 145.066406 291.796875 144.96875 292.109375 144.84375 292.414062 C 144.71875 292.71875 144.5625 293.007812 144.378906 293.28125 C 144.199219 293.554688 143.988281 293.808594 143.757812 294.039062 C 143.523438 294.273438 143.269531 294.480469 142.996094 294.664062 C 142.722656 294.847656 142.433594 295 142.132812 295.128906 C 141.828125 295.253906 141.511719 295.347656 141.191406 295.414062 C 140.867188 295.476562 140.542969 295.507812 140.210938 295.507812 C 139.882812 295.507812 139.558594 295.476562 139.234375 295.414062 C 138.910156 295.347656 138.597656 295.253906 138.292969 295.128906 C 137.992188 295 137.703125 294.847656 137.429688 294.664062 C 137.152344 294.480469 136.902344 294.273438 136.667969 294.039062 C 136.433594 293.808594 136.226562 293.554688 136.042969 293.28125 C 135.863281 293.007812 135.707031 292.71875 135.582031 292.414062 C 135.457031 292.109375 135.359375 291.796875 135.296875 291.472656 C 135.230469 291.152344 135.199219 290.824219 135.199219 290.496094 L 135.199219 147.429688 C 135.222656 147.28125 135.222656 147.128906 135.199219 146.980469 C 135.175781 146.480469 135.078125 145.996094 134.898438 145.527344 C 134.761719 145.242188 134.59375 144.972656 134.398438 144.722656 C 134.242188 144.4375 134.058594 144.167969 133.847656 143.921875 C 133.460938 143.550781 133.027344 143.25 132.542969 143.019531 L 132.292969 143.019531 C 129.960938 142.046875 127.902344 140.660156 126.125 138.859375 C 125.160156 137.941406 124.296875 136.929688 123.535156 135.835938 C 122.773438 134.738281 122.132812 133.574219 121.613281 132.34375 C 121.089844 131.117188 120.699219 129.847656 120.4375 128.539062 C 120.175781 127.230469 120.050781 125.90625 120.0625 124.574219 L 120.0625 70.636719 C 120.0625 70.304688 120.03125 69.980469 119.964844 69.65625 C 119.902344 69.335938 119.804688 69.019531 119.679688 68.71875 C 119.554688 68.414062 119.398438 68.125 119.214844 67.851562 C 119.035156 67.578125 118.824219 67.324219 118.59375 67.089844 C 118.359375 66.859375 118.105469 66.648438 117.832031 66.46875 C 117.558594 66.285156 117.269531 66.128906 116.96875 66.003906 C 116.664062 65.878906 116.347656 65.78125 116.027344 65.71875 C 115.703125 65.65625 115.378906 65.621094 115.046875 65.621094 C 114.71875 65.621094 114.394531 65.65625 114.070312 65.71875 C 113.746094 65.78125 113.433594 65.878906 113.128906 66.003906 C 112.828125 66.128906 112.539062 66.285156 112.265625 66.46875 C 111.988281 66.648438 111.738281 66.859375 111.503906 67.089844 C 111.269531 67.324219 111.0625 67.578125 110.878906 67.851562 C 110.699219 68.125 110.542969 68.414062 110.417969 68.71875 C 110.292969 69.019531 110.195312 69.335938 110.132812 69.65625 C 110.066406 69.980469 110.035156 70.304688 110.035156 70.636719 L 110.035156 124.574219 C 110.03125 126.542969 110.222656 128.496094 110.609375 130.429688 C 110.992188 132.363281 111.5625 134.238281 112.320312 136.058594 C 113.078125 137.878906 114.007812 139.609375 115.105469 141.242188 C 116.207031 142.878906 117.457031 144.390625 118.859375 145.777344 C 120.769531 147.460938 122.839844 148.917969 125.074219 150.136719 Z M 125.074219 150.136719 " fill-opacity="1" fill-rule="nonzero"/><path fill="#ffffff" d="M 148.734375 135.101562 C 149.0625 135.101562 149.390625 135.066406 149.710938 135.003906 C 150.035156 134.9375 150.347656 134.84375 150.652344 134.71875 C 150.957031 134.59375 151.246094 134.4375 151.519531 134.253906 C 151.792969 134.070312 152.046875 133.863281 152.277344 133.632812 C 152.511719 133.398438 152.71875 133.144531 152.902344 132.871094 C 153.085938 132.597656 153.238281 132.308594 153.367188 132.003906 C 153.492188 131.703125 153.585938 131.386719 153.652344 131.066406 C 153.714844 130.742188 153.746094 130.417969 153.746094 130.085938 L 153.746094 69.933594 C 153.746094 69.605469 153.714844 69.277344 153.652344 68.957031 C 153.585938 68.632812 153.492188 68.320312 153.367188 68.015625 C 153.238281 67.710938 153.085938 67.421875 152.902344 67.148438 C 152.71875 66.875 152.511719 66.621094 152.277344 66.390625 C 152.046875 66.15625 151.792969 65.949219 151.519531 65.765625 C 151.246094 65.582031 150.957031 65.429688 150.652344 65.300781 C 150.347656 65.175781 150.035156 65.082031 149.710938 65.015625 C 149.390625 64.953125 149.0625 64.921875 148.734375 64.921875 C 148.40625 64.921875 148.078125 64.953125 147.757812 65.015625 C 147.433594 65.082031 147.121094 65.175781 146.816406 65.300781 C 146.511719 65.429688 146.222656 65.582031 145.949219 65.765625 C 145.675781 65.949219 145.421875 66.15625 145.191406 66.390625 C 144.957031 66.621094 144.75 66.875 144.566406 67.148438 C 144.382812 67.421875 144.230469 67.710938 144.101562 68.015625 C 143.976562 68.320312 143.882812 68.632812 143.816406 68.957031 C 143.753906 69.277344 143.722656 69.605469 143.722656 69.933594 L 143.722656 130.085938 C 143.722656 130.417969 143.753906 130.742188 143.816406 131.066406 C 143.882812 131.386719 143.976562 131.703125 144.101562 132.003906 C 144.230469 132.308594 144.382812 132.597656 144.566406 132.871094 C 144.75 133.144531 144.957031 133.398438 145.191406 133.632812 C 145.421875 133.863281 145.675781 134.070312 145.949219 134.253906 C 146.222656 134.4375 146.511719 134.59375 146.816406 134.71875 C 147.121094 134.84375 147.433594 134.9375 147.757812 135.003906 C 148.078125 135.066406 148.40625 135.101562 148.734375 135.101562 Z M 148.734375 135.101562 " fill-opacity="1" fill-rule="nonzero"/><path fill="#ffffff" d="M 131.539062 135.101562 C 131.871094 135.101562 132.195312 135.066406 132.519531 135.003906 C 132.839844 134.9375 133.15625 134.84375 133.460938 134.71875 C 133.761719 134.59375 134.050781 134.4375 134.324219 134.253906 C 134.597656 134.070312 134.851562 133.863281 135.085938 133.632812 C 135.316406 133.398438 135.527344 133.144531 135.707031 132.871094 C 135.890625 132.597656 136.046875 132.308594 136.171875 132.003906 C 136.296875 131.703125 136.394531 131.386719 136.457031 131.066406 C 136.519531 130.742188 136.554688 130.417969 136.554688 130.085938 L 136.554688 69.933594 C 136.554688 69.605469 136.519531 69.277344 136.457031 68.957031 C 136.394531 68.632812 136.296875 68.320312 136.171875 68.015625 C 136.046875 67.710938 135.890625 67.421875 135.707031 67.148438 C 135.527344 66.875 135.316406 66.621094 135.085938 66.390625 C 134.851562 66.15625 134.597656 65.949219 134.324219 65.765625 C 134.050781 65.582031 133.761719 65.429688 133.460938 65.300781 C 133.15625 65.175781 132.839844 65.082031 132.519531 65.015625 C 132.195312 64.953125 131.871094 64.921875 131.539062 64.921875 C 131.210938 64.921875 130.886719 64.953125 130.5625 65.015625 C 130.238281 65.082031 129.925781 65.175781 129.621094 65.300781 C 129.316406 65.429688 129.03125 65.582031 128.753906 65.765625 C 128.480469 65.949219 128.230469 66.15625 127.996094 66.390625 C 127.761719 66.621094 127.554688 66.875 127.371094 67.148438 C 127.191406 67.421875 127.035156 67.710938 126.910156 68.015625 C 126.785156 68.320312 126.6875 68.632812 126.625 68.957031 C 126.558594 69.277344 126.527344 69.605469 126.527344 69.933594 L 126.527344 130.085938 C 126.527344 130.417969 126.558594 130.742188 126.625 131.066406 C 126.6875 131.386719 126.785156 131.703125 126.910156 132.003906 C 127.035156 132.308594 127.191406 132.597656 127.371094 132.871094 C 127.554688 133.144531 127.761719 133.398438 127.996094 133.632812 C 128.230469 133.863281 128.480469 134.070312 128.753906 134.253906 C 129.03125 134.4375 129.316406 134.59375 129.621094 134.71875 C 129.925781 134.84375 130.238281 134.9375 130.5625 135.003906 C 130.886719 135.066406 131.210938 135.101562 131.539062 135.101562 Z M 131.539062 135.101562 " fill-opacity="1" fill-rule="nonzero"/><path fill="#ffffff" d="M 210.292969 151.640625 L 210.292969 289.84375 C 210.292969 290.832031 210.386719 291.808594 210.582031 292.777344 C 210.773438 293.746094 211.058594 294.6875 211.4375 295.597656 C 211.8125 296.511719 212.277344 297.378906 212.824219 298.199219 C 213.375 299.019531 213.996094 299.78125 214.695312 300.476562 C 215.394531 301.175781 216.152344 301.800781 216.976562 302.347656 C 217.796875 302.898438 218.664062 303.359375 219.574219 303.738281 C 220.488281 304.117188 221.425781 304.402344 222.394531 304.59375 C 223.363281 304.785156 224.34375 304.882812 225.328125 304.882812 C 226.316406 304.882812 227.296875 304.785156 228.261719 304.59375 C 229.230469 304.402344 230.171875 304.117188 231.085938 303.738281 C 231.996094 303.359375 232.863281 302.898438 233.683594 302.347656 C 234.503906 301.800781 235.265625 301.175781 235.964844 300.476562 C 236.660156 299.78125 237.285156 299.019531 237.832031 298.199219 C 238.382812 297.378906 238.84375 296.511719 239.222656 295.597656 C 239.601562 294.6875 239.886719 293.746094 240.078125 292.777344 C 240.273438 291.808594 240.367188 290.832031 240.367188 289.84375 L 240.367188 151.640625 C 253.25 145.125 257.914062 130.085938 257.914062 118.054688 C 257.914062 92.390625 244.828125 64.921875 225.328125 64.921875 C 205.832031 64.921875 192.746094 92.390625 192.746094 118.054688 C 192.746094 130.085938 197.410156 145.125 210.292969 151.640625 Z M 225.328125 74.945312 C 237.109375 74.945312 247.886719 95.5 247.886719 118.054688 C 247.886719 128.082031 244.128906 139.8125 233.601562 143.671875 C 233.121094 143.851562 232.679688 144.097656 232.273438 144.414062 C 231.871094 144.726562 231.523438 145.09375 231.230469 145.515625 C 230.941406 145.9375 230.71875 146.394531 230.566406 146.882812 C 230.414062 147.371094 230.339844 147.871094 230.34375 148.382812 L 230.34375 289.84375 C 230.34375 290.171875 230.308594 290.5 230.246094 290.820312 C 230.183594 291.144531 230.085938 291.457031 229.960938 291.761719 C 229.835938 292.066406 229.679688 292.355469 229.496094 292.628906 C 229.316406 292.902344 229.105469 293.15625 228.875 293.390625 C 228.640625 293.621094 228.386719 293.828125 228.113281 294.011719 C 227.839844 294.195312 227.550781 294.347656 227.25 294.476562 C 226.945312 294.601562 226.628906 294.695312 226.308594 294.761719 C 225.984375 294.824219 225.660156 294.855469 225.328125 294.855469 C 225 294.855469 224.675781 294.824219 224.351562 294.761719 C 224.027344 294.695312 223.714844 294.601562 223.410156 294.476562 C 223.105469 294.347656 222.820312 294.195312 222.542969 294.011719 C 222.269531 293.828125 222.019531 293.621094 221.785156 293.390625 C 221.550781 293.15625 221.34375 292.902344 221.160156 292.628906 C 220.980469 292.355469 220.824219 292.066406 220.699219 291.761719 C 220.574219 291.457031 220.476562 291.144531 220.414062 290.820312 C 220.347656 290.5 220.316406 290.171875 220.316406 289.84375 L 220.316406 148.382812 C 220.320312 147.871094 220.242188 147.371094 220.09375 146.882812 C 219.941406 146.394531 219.71875 145.9375 219.425781 145.515625 C 219.136719 145.09375 218.789062 144.726562 218.382812 144.414062 C 217.980469 144.097656 217.539062 143.851562 217.058594 143.671875 C 206.53125 139.8125 202.773438 127.882812 202.773438 118.054688 C 202.773438 95.5 213.550781 74.945312 225.328125 74.945312 Z M 225.328125 74.945312 " fill-opacity="1" fill-rule="nonzero"/></g></g></svg>